<svg width="21" height="16" viewBox="0 0 21 16" fill="none" xmlns="http://www.w3.org/2000/svg">
<path d="M18.3732 7.77894C18.3732 7.53351 18.1743 7.33455 17.9289 7.33455L3.6278 7.33454C3.38236 7.33454 3.18341 7.5335 3.18341 7.77893C3.18338 7.90166 3.23315 8.01275 3.31357 8.09317C3.39399 8.17359 3.50508 8.22333 3.62783 8.22331L17.9289 8.22331C18.1743 8.22331 18.3732 8.02436 18.3732 7.77894Z" fill="#999999"/>
<path d="M11.2227 14.9294L11.2227 0.628446C11.2227 0.38303 11.0237 0.184059 10.7783 0.184074C10.5329 0.184058 10.3339 0.383013 10.3339 0.628445L10.334 14.9294C10.3339 15.0521 10.3837 15.1632 10.4641 15.2437C10.5445 15.3241 10.6557 15.3738 10.7783 15.3738C11.0238 15.3738 11.2227 15.1748 11.2227 14.9294Z" fill="#999999"/>
</svg>
