<svg width="17" height="16" viewBox="0 0 17 16" fill="none" xmlns="http://www.w3.org/2000/svg">
<path d="M16.3735 7.77922C16.3735 7.53378 16.1745 7.33481 15.9291 7.33481L1.6276 7.3348C1.38216 7.3348 1.1832 7.53376 1.1832 7.7792C1.18317 7.90194 1.23294 8.01303 1.31336 8.09345C1.39378 8.17388 1.50488 8.22362 1.62763 8.22361L15.9291 8.2236C16.1745 8.2236 16.3734 8.02464 16.3735 7.77922Z" fill="#999999"/>
<path d="M9.22274 14.9299L9.22271 0.628469C9.22272 0.383043 9.02375 0.184065 8.77832 0.18408C8.5329 0.184065 8.33393 0.383027 8.33393 0.628467L8.33395 14.9299C8.33394 15.0527 8.3837 15.1638 8.46412 15.2442C8.54454 15.3246 8.65565 15.3744 8.77834 15.3744C9.02377 15.3743 9.22273 15.1754 9.22274 14.9299Z" fill="#999999"/>
</svg>
