<svg width="16" height="16" viewBox="0 0 16 16" fill="none" xmlns="http://www.w3.org/2000/svg">
<path d="M12.0552 4.63918C11.9354 4.51936 11.7411 4.51936 11.6213 4.63918L4.63967 11.6208C4.51985 11.7406 4.51985 11.9349 4.63967 12.0547C4.69957 12.1146 4.7781 12.1446 4.85662 12.1446C4.93514 12.1446 5.01366 12.1146 5.07358 12.0547L12.0552 5.07306C12.175 4.95325 12.175 4.759 12.0552 4.63918Z" fill="black"/>
<path d="M12.0552 11.6208L5.07355 4.63918C4.95374 4.51936 4.75947 4.51936 4.63967 4.63918C4.51985 4.75898 4.51985 4.95324 4.63967 5.07306L11.6213 12.0547C11.6812 12.1146 11.7597 12.1445 11.8382 12.1445C11.9168 12.1445 11.9953 12.1146 12.0552 12.0547C12.175 11.9348 12.175 11.7406 12.0552 11.6208Z" fill="black"/>
</svg>
