<svg width="11" height="11" viewBox="0 0 11 11" fill="none" xmlns="http://www.w3.org/2000/svg">
<path d="M11 10.5063C10.2876 10.5063 9.60081 10.5046 8.91406 10.5063C6.47606 10.5128 4.03772 10.5234 1.59973 10.5251C1.13842 10.5251 0.677113 10.49 0.215805 10.4723C0.0829621 10.4672 -0.00270933 10.4326 6.54492e-05 10.3045C0.02157 9.29056 0.189444 8.30457 0.90187 7.44244C1.34063 6.91192 1.95282 6.54236 2.66178 6.27981C2.75615 6.24374 2.85918 6.2256 2.96323 6.22673C3.06728 6.22787 3.16969 6.24825 3.26286 6.28637C3.88719 6.52609 4.52366 6.75297 5.13584 7.01723C5.41575 7.13823 5.62594 7.13851 5.90515 7.01723C6.49479 6.76039 7.1101 6.54435 7.71084 6.30378C8.0119 6.18392 8.28834 6.2293 8.5679 6.34887C9.70452 6.83401 10.4492 7.57201 10.7683 8.60508C10.9584 9.22521 10.9674 9.85276 11 10.5063Z" fill="#646567"/>
<path d="M5.50009 5.47414C7.33734 5.47414 8.82672 4.24871 8.82672 2.73707C8.82672 1.22543 7.33734 0 5.50009 0C3.66284 0 2.17346 1.22543 2.17346 2.73707C2.17346 4.24871 3.66284 5.47414 5.50009 5.47414Z" fill="#646567"/>
</svg>
